<?xml version="1.0" encoding="utf-8"?>
<!-- Generator: Adobe Illustrator 20.0.0, SVG Export Plug-In . SVG Version: 6.00 Build 0)  -->
<svg version="1.1" id="Calque_1" xmlns="http://www.w3.org/2000/svg" xmlns:xlink="http://www.w3.org/1999/xlink" x="0px" y="0px"
	 viewBox="0 0 512 512" style="enable-background:new 0 0 512 512;" xml:space="preserve">
<style type="text/css">
	.st0{fill:#C64242;}
	.st1{fill:#FFFFFF;}
</style>
<g id="_x23_333333ff">
	<path class="st0" d="M223.1,11.5c34.4-8,71.4-4.1,103.3,11.1c29.3,13.8,54.1,36.9,70.1,65.1c15.8,28,23.2,61.2,19.4,93.2
		c-3.8,27.7-16.4,53.3-31.6,76.5c-13.5,20.4-29.5,39-45,57.9c-26.5,32-53.5,63.5-80.5,95C227.6,377,196.9,343.4,167,309
		c-20-23-39.4-47.2-51.8-75.3c-12.9-28.2-17.3-60-13-90.7c4.5-32.4,19.5-63.1,42.1-86.7C165.5,34.1,193.2,18.3,223.1,11.5
		 M251.1,91.3c-23.3,2.1-45.1,15.5-57.6,35.2c-10.3,15.6-14.4,35.1-11.6,53.5c2.7,19.3,13.3,37.4,28.6,49.4
		c12.3,9.8,27.7,15.8,43.5,16.6c15.7,1,31.6-2.9,45-11.1c12.3-7.4,22.4-18.3,28.9-31c8.9-17.3,10.9-37.9,5.6-56.5
		c-5.3-19.2-18.5-36.1-35.8-46C283.8,93.2,267.2,89.7,251.1,91.3z"/>
	<path class="st1" d="M80.7,378.8c30-8.4,60.9-13.5,91.8-16.7c5.3,5.2,10.7,10.4,15.9,15.7c-20.5,1.2-41.1,3-61.4,6
		c-16.8,2.6-33.5,5.8-49.4,11.9c-7.1,2.9-14.5,6.4-19.5,12.4c-3.3,3.8-4.5,9.3-2.5,14c2.8,7.1,9.4,11.7,15.7,15.6
		c13.3,7.6,28.1,12.1,42.9,16c24.7,6.1,50,9.7,75.3,12.1c51.1,4.4,102.6,4,153.5-1.8c26.3-3.3,52.6-7.7,77.7-16.2
		c10.6-3.7,21.1-8.1,30-15c5.1-4,9.9-9.9,9.3-16.9c-0.6-6-5.4-10.5-10.1-13.7c-8.8-5.7-18.9-8.9-29-11.7
		c-29.5-7.5-59.9-10.3-90.1-12.4c5.3-5.2,10.4-10.4,15.8-15.5c26,2.9,52,7.1,77.4,13.5c19,5,38,11,55.4,20.5
		c9.6,5.5,19.4,12.1,24.8,22.1c4,7.2,3.3,16.4-1.3,23.1c-6.8,10.3-17.8,16.9-28.5,22.5c-19,9.3-39.4,15.3-59.9,20.2
		c-47.7,10.8-96.6,15.1-145.4,15.8c-52.1,0.6-104.4-2.8-155.6-13c-24.9-5.2-49.9-11.7-72.9-23c-9.4-4.8-18.7-10.4-25.7-18.4
		c-5-5.8-8.3-13.7-6.5-21.4c2.4-9.9,10.4-17.1,18.5-22.8C43.2,390.8,62,384.4,80.7,378.8z"/>
</g>
</svg>
